<?xml version="1.0" encoding="UTF-8"?>
<svg width="20px" height="20px" viewBox="0 0 16 16" version="1.1" xmlns="http://www.w3.org/2000/svg" xmlns:xlink="http://www.w3.org/1999/xlink">
    <!-- Generator: Sketch 53.2 (72643) - https://sketchapp.com -->
    <title>Icon</title>
    <desc>Created with Sketch.</desc>
    <g id="wp-site" stroke="none" stroke-width="1" fill="none" fill-rule="evenodd">
        <g id="Light-Mode" transform="translate(-1114.000000, -1454.000000)">
            <g id="Group-5" transform="translate(1054.000000, 1450.000000)">
                <g id="Icon" transform="translate(56.000000, 0.000000)">
                    <rect id="Rectangle" x="0" y="0" width="24" height="24"></rect>
                    <path d="M11.9992633,4 C7.58218484,4 4,7.58169373 4,12.0002456 C4,15.5347924 6.29202861,18.5330428 9.47100893,19.5909021 C9.87126677,19.6645692 10.0171276,19.4175389 10.0171276,19.2053777 C10.0171276,19.0158077 10.010252,18.512416 10.0063231,17.8449922 C7.78108598,18.3282483 7.31158108,16.7723994 7.31158108,16.7723994 C6.94766567,15.848123 6.42315602,15.602075 6.42315602,15.602075 C5.69679855,15.1060499 6.47816078,15.1158722 6.47816078,15.1158722 C7.28113202,15.1723503 7.70348998,15.9404524 7.70348998,15.9404524 C8.41707849,17.162835 9.57610731,16.8097241 10.031861,16.6049296 C10.1045459,16.0882777 10.3113048,15.7356579 10.5396728,15.5357746 C8.76331379,15.3339268 6.8956076,14.6473495 6.8956076,11.5818165 C6.8956076,10.708616 7.20746493,9.99404524 7.71920562,9.43515762 C7.63669849,9.23281869 7.36216581,8.41904294 7.79778385,7.31796556 C7.79778385,7.31796556 8.46913656,7.10285767 9.99748304,8.13812579 C10.63544,7.96034255 11.3200528,7.87194205 12.0002456,7.86850425 C12.6799472,7.87194205 13.3640689,7.96034255 14.0030081,8.13812579 C15.5303723,7.10285767 16.2007428,7.31796556 16.2007428,7.31796556 C16.6373431,8.41904294 16.3628104,9.23281869 16.2807944,9.43515762 C16.7935173,9.99404524 17.1029191,10.708616 17.1029191,11.5818165 C17.1029191,14.6552073 15.2322662,15.3314712 13.4505049,15.5293901 C13.7373154,15.7764204 13.9931858,16.2645876 13.9931858,17.0110808 C13.9931858,18.0802357 13.9833635,18.9431229 13.9833635,19.2053777 C13.9833635,19.4195034 14.127751,19.6684981 14.5334111,19.590411 C17.7099358,18.5300961 20,15.5338101 20,12.0002456 C20,7.58169373 16.4178152,4 11.9992633,4" id="fill" fill="#727079"></path>
                </g>
            </g>
        </g>
    </g>
</svg>