<?xml version="1.0" encoding="UTF-8"?>
<svg width="32px" height="32px" viewBox="0 0 32 32" version="1.1" xmlns="http://www.w3.org/2000/svg" xmlns:xlink="http://www.w3.org/1999/xlink">
    <!-- Generator: Sketch 53.2 (72643) - https://sketchapp.com -->
    <title>Icons/Work/Gitlab</title>
    <desc>Created with Sketch.</desc>
    <g id="Icons/Work/Gitlab" stroke="none" stroke-width="1" fill="none" fill-rule="evenodd">
        <rect id="Rectangle" x="0" y="0" width="32" height="32"></rect>
        <g id="gitlab-icon-1-color-black-rgb" transform="translate(4.000000, 5.000000)" fill="#727079" fill-rule="nonzero">
            <path d="M23.8927059,12.4482353 L22.6376471,8.592 C22.630994,8.55649115 22.6208263,8.5217319 22.6072941,8.48823529 L20.0894118,0.737647059 C19.9518203,0.327473483 19.5662729,0.052123151 19.1336471,0.0550588235 C18.7019333,0.0524410753 18.3189328,0.331533327 18.1891765,0.743294118 L15.7891765,8.12894118 L8.21435294,8.12894118 L5.81082353,0.743294118 C5.68153139,0.333031654 5.30074073,0.0542997538 4.87058824,0.0550588235 L4.86494118,0.0550588235 C4.43194815,0.0551341533 4.04780512,0.332855336 3.912,0.744 L1.392,8.50376471 C1.392,8.51082353 1.38635294,8.51647059 1.38423529,8.52352941 L0.106588235,12.4489412 C-0.0860213108,13.0395705 0.124095331,13.6870263 0.626823529,14.052 L11.6654118,22.0729412 C11.8647768,22.2172511 12.1346437,22.2158232 12.3324706,22.0694118 L23.3731765,14.052 C23.8761409,13.6868759 24.0860416,13.0389214 23.8927059,12.4482353 M7.39270588,9.26258824 L10.4696471,18.7327059 L3.08329412,9.26258824 M13.5338824,18.7348235 L16.4844706,9.65576471 L16.6115294,9.26258824 L20.9244706,9.26258824 L14.2418824,17.8235294 M19.1435294,1.47035294 L21.3056471,8.12894118 L16.9778824,8.12894118 M15.4228235,9.25835294 L13.2790588,15.8555294 L12,19.7844706 L8.58211765,9.25835294 M4.86,1.47035294 L7.02635294,8.12894118 L2.70141176,8.12894118 M1.29105882,13.1385882 C1.18423104,13.060897 1.1397409,12.9231486 1.18094118,12.7976471 L2.12964706,9.88235294 L9.08752941,18.8025882 M22.7096471,13.1385882 L14.9124706,18.8004706 L14.9385882,18.7665882 L21.8703529,9.88235294 L22.8190588,12.7962353 C22.8607517,12.9217933 22.8165224,13.059903 22.7096471,13.1378824" id="Shape"></path>
        </g>
    </g>
</svg>