<?xml version="1.0" encoding="UTF-8"?>
<svg width="16px" height="15px" viewBox="0 0 16 15" version="1.1" xmlns="http://www.w3.org/2000/svg" xmlns:xlink="http://www.w3.org/1999/xlink">
    <!-- Generator: Sketch 53.2 (72643) - https://sketchapp.com -->
    <title>heart</title>
    <desc>Created with Sketch.</desc>
    <g id="wp-site" stroke="none" stroke-width="1" fill="none" fill-rule="evenodd">
        <g id="Light-Mode" transform="translate(-326.000000, -1454.000000)">
            <g id="Group-9" transform="translate(250.000000, 1450.000000)">
                <g id="Group-7">
                    <g id="heart" transform="translate(72.000000, 0.000000)">
                        <polygon id="Path" points="0 0 24 0 24 24 0 24"></polygon>
                        <g transform="translate(4.000000, 4.000000)" fill="#DF0027" fill-rule="nonzero" id="Path">
                            <path d="M14.6437647,1.30823529 C13.9632941,0.482823529 13.0089412,0.0658823529 11.7675294,0 C10.4988235,0 9.55764706,0.548705882 8.89035294,1.30823529 C8.224,2.06588235 7.87105882,2.51011765 7.84470588,2.61458824 C7.81835294,2.51105882 7.47858824,2.06588235 6.79905882,1.30729412 C6.11764706,0.548705882 5.26870588,0 3.92282353,0 C2.68047059,0.0658823529 1.71294118,0.496941176 1.04470588,1.30823529 C0.367058824,2.10447059 0.0263529412,2.97976471 0,3.92188235 C0,4.60141176 0.117647059,5.90870588 0.875294118,7.41270588 C1.63388235,8.91576471 3.93505882,11.2564706 7.84470588,14.3811765 C11.7411765,11.2564706 14.0809412,8.92894118 14.8263529,7.41270588 C15.5717647,5.89552941 15.6894118,4.57505882 15.6894118,3.92094118 C15.6630588,2.97976471 15.3232941,2.10447059 14.6437647,1.28 L14.6437647,1.30635294 L14.6437647,1.30823529 Z"></path>
                        </g>
                    </g>
                </g>
            </g>
        </g>
    </g>
</svg>