


<svg width="20px" height="20px" viewBox="0 0 16 16" version="1.1" xmlns="http://www.w3.org/2000/svg" xmlns:xlink="http://www.w3.org/1999/xlink">
    <g id="wp-site" stroke="none" stroke-width="1" fill="none" fill-rule="evenodd">
        <g id="Light-Mode" transform="translate(-1058.000000, -1454.000000)" fill="#727079">
            <g id="Group-5" transform="translate(1054.000000, 1450.000000)">
                <g id="Group-4">
                    <g id="Group-3" transform="translate(4.000000, 4.000000)">
                        <path d="M13.3864727,13.3858909 L11.0574545,13.3858909 L11.0574545,9.73992727 C11.0574545,8.8704 11.0420364,7.75214545 9.84669091,7.75214545 C8.63418182,7.75214545 8.44916364,8.69992727 8.44916364,9.67767273 L8.44916364,13.3858909 L6.12014545,13.3858909 L6.12014545,5.88916364 L8.35490909,5.88916364 L8.35490909,6.91432727 L8.38690909,6.91432727 C8.69789091,6.32465455 9.45803636,5.70327273 10.5914182,5.70327273 C12.9509818,5.70327273 13.3864727,7.25556364 13.3864727,9.27418182 L13.3864727,13.3858909 Z M3.49352727,4.86487273 C2.74676364,4.86487273 2.14312727,4.25949091 2.14312727,3.51418182 C2.14312727,2.768 2.74676364,2.16261818 3.49352727,2.16261818 C4.23825455,2.16261818 4.84363636,2.768 4.84363636,3.51418182 C4.84363636,4.25949091 4.23825455,4.86487273 3.49352727,4.86487273 Z M2.32814545,13.3858909 L4.65890909,13.3858909 L4.65890909,5.88916364 L2.32814545,5.88916364 L2.32814545,13.3858909 Z M14.5466182,0 L1.15927273,0 C0.519854545,0 2.13162821e-14,0.507345455 2.13162821e-14,1.1328 L2.13162821e-14,14.5757091 C2.13162821e-14,15.2011636 0.519854545,15.7090909 1.15927273,15.7090909 L14.5466182,15.7090909 C15.1874909,15.7090909 15.7085091,15.2011636 15.7085091,14.5757091 L15.7085091,1.1328 C15.7085091,0.507345455 15.1874909,0 14.5466182,0 L14.5466182,0 Z" id="Fill-4"></path>
                    </g>
                </g>
            </g>
        </g>
    </g>
</svg>