<?xml version="1.0" encoding="UTF-8"?>
<svg width="20px" height="20px" viewBox="0 0 16 13" version="1.1" xmlns="http://www.w3.org/2000/svg" xmlns:xlink="http://www.w3.org/1999/xlink">
    <!-- Generator: Sketch 53.2 (72643) - https://sketchapp.com -->
    <title>Group</title>
    <desc>Created with Sketch.</desc>
    <g id="wp-site" stroke="none" stroke-width="1" fill="none" fill-rule="evenodd">
        <g id="Light-Mode" transform="translate(-1170.000000, -1455.000000)">
            <g id="Group-5" transform="translate(1054.000000, 1450.000000)">
                <g id="Group" transform="translate(112.000000, 0.000000)">
                    <rect id="Rectangle" x="0" y="0" width="24" height="24"></rect>
                    <path d="M9.03168,18.0009402 C15.06944,18.0009402 18.37184,12.9987002 18.37184,8.66078018 C18.37184,8.51870018 18.37184,8.37726018 18.36224,8.23646018 C19.0046921,7.77176313 19.5592675,7.19638299 20,6.53726018 C19.4008826,6.80273332 18.7653307,6.97683052 18.11456,7.05374018 C18.7998362,6.6434887 19.312719,5.99823425 19.55776,5.23806018 C18.9133808,5.62043158 18.2084135,5.88990787 17.47328,6.03486018 C16.455733,4.95287252 14.8388604,4.68805223 13.5293115,5.38889533 C12.2197627,6.08973843 11.543216,7.58194865 11.87904,9.02878018 C9.23961327,8.89645988 6.7804645,7.64978707 5.1136,5.59902018 C4.24231856,7.09895281 4.68735225,9.01781025 6.12992,9.98110018 C5.60751437,9.96561701 5.0964988,9.82469261 4.64,9.57022018 C4.64,9.58366018 4.64,9.59774018 4.64,9.61182018 C4.64042761,11.1744397 5.74192095,12.5203227 7.2736,12.8297402 C6.79031654,12.9615418 6.28325158,12.9808085 5.79136,12.8860602 C6.22140667,14.2232908 7.45380772,15.1393619 8.85824,15.1657402 C7.69583042,16.0792966 6.25987809,16.5752299 4.78144,16.5737402 C4.52025828,16.5732388 4.2593306,16.557425 4,16.5263802 C5.50120701,17.4897572 7.24794458,18.000759 9.03168,17.9983802" id="Path" fill="#727079" fill-rule="nonzero"></path>
                </g>
            </g>
        </g>
    </g>
</svg>