<svg xmlns="http://www.w3.org/2000/svg" width="100" height="100" viewBox="0 0 100 100">
  <g fill="none" fill-rule="evenodd">
    <rect width="53" height="53" x="45.5" y="45.5" fill="#FFF" stroke="#043485" stroke-width="3"/>
    <circle cx="44" cy="44" r="42.5" fill="#E6EEFC" stroke="#043485" stroke-width="3"/>
    <path fill="#043485" fill-rule="nonzero" d="M22.99 25.5C22.688 25.5 22.386 25.45 22.094 25.354 21.376 25.114 20.796 24.61 20.458 23.934L15.798 14.59C14.25 11.484 14.86 7.752 17.316 5.3 17.6 5.018 17.976 4.862 18.376 4.862 18.778 4.862 19.154 5.018 19.438 5.304 19.72 5.588 19.876 5.964 19.876 6.366 19.876 6.766 19.718 7.144 19.436 7.426 17.894 8.962 17.51 11.304 18.482 13.25L22.988 22.286 27.516 13.26C28.492 11.316 28.116 8.974 26.578 7.432 25.994 6.846 25.996 5.896 26.58 5.312 26.864 5.03 27.24 4.874 27.64 4.874 28.042 4.874 28.418 5.03 28.702 5.314 31.152 7.772 31.752 11.506 30.196 14.606L25.514 23.938C25.244 24.48 24.794 24.93 24.248 25.202 23.86 25.396 23.424 25.5 22.99 25.5zM17 3C16.172 3 15.5 2.328 15.5 1.5 15.5.672 16.172 0 17 0L29 0C29.828 0 30.5.672 30.5 1.5 30.5 2.328 29.828 3 29 3L17 3zM43.628 48.002C43.032 48.002 42.492 47.648 42.252 47.102 39.59 41.014 33.99 36.444 27.498 35L27.498 36C27.498 36.828 26.826 37.5 25.998 37.5L19.998 37.5C19.17 37.5 18.498 36.828 18.498 36L18.498 35C12.008 36.442 6.406 41.012 3.744 47.1 3.508 47.648 2.968 48 2.372 48 2.164 48 1.962 47.958 1.77 47.874 1.014 47.542.666 46.658.998 45.9 3.108 41.076 6.824 37.054 11.444 34.5L2 34.5C1.172 34.5.5 33.828.5 33 .5 32.172 1.172 31.5 2 31.5L18.5 31.5 18.5 30C18.5 29.172 19.172 28.5 20 28.5L26 28.5C26.828 28.5 27.5 29.172 27.5 30L27.5 31.5 44 31.5C44.828 31.5 45.5 32.172 45.5 33 45.5 33.828 44.828 34.5 44 34.5L34.556 34.5C39.176 37.054 42.892 41.076 45.002 45.902 45.162 46.27 45.17 46.676 45.024 47.05 44.878 47.424 44.594 47.716 44.228 47.876 44.04 47.96 43.836 48.002 43.628 48.002zM24.5 34.5L24.5 31.5 21.5 31.5 21.5 34.5 24.5 34.5z" transform="translate(21 20)"/>
  </g>
</svg>
