<svg xmlns="http://www.w3.org/2000/svg" width="100" height="100" viewBox="0 0 100 100">
  <g fill="none" fill-rule="evenodd">
    <rect width="53" height="53" x="45.5" y="45.5" fill="#FFF" stroke="#043485" stroke-width="3"/>
    <circle cx="44" cy="44" r="42.5" fill="#E6EEFC" stroke="#043485" stroke-width="3"/>
    <g fill="#043485" fill-rule="nonzero" transform="translate(20 23)">
      <path d="M4.5,42 C2.018,42 0,39.982 0,37.5 L0,4.73 C0.008,2.128 2.128,0.008 4.726,0 L43.286,0 C45.878,0.008 47.992,2.12 48,4.71 L48,37.27 C47.992,39.872 45.872,41.992 43.274,42 C43.274,42 43.272,42 43.272,42 L4.5,42 Z M3,37.5 C3,38.328 3.672,39 4.5,39 L43.27,39 C44.22,38.998 44.998,38.22 45,37.266 L45,12 L3,12 L3,37.5 Z M45,9 L45,4.714 C44.998,3.772 44.226,3.002 43.282,3 L4.73,3 C3.78,3.004 3.002,3.782 3,4.734 L3,9 L45,9 Z"/>
      <path d="M33 33C32.6 33 32.222 32.844 31.94 32.56 31.356 31.976 31.356 31.024 31.94 30.438L36.88 25.498 31.94 20.558C31.656 20.276 31.5 19.898 31.5 19.498 31.5 19.098 31.656 18.72 31.94 18.438 32.224 18.156 32.6 17.998 33 17.998 33.4 17.998 33.778 18.154 34.06 18.438L40.06 24.438C40.644 25.022 40.644 25.974 40.06 26.56L34.06 32.56C33.778 32.844 33.4 33 33 33zM15 33C14.6 33 14.222 32.844 13.94 32.56L7.94 26.56C7.356 25.976 7.356 25.024 7.94 24.438L13.94 18.438C14.222 18.156 14.6 18 15 18 15.4 18 15.778 18.156 16.06 18.44 16.344 18.722 16.5 19.1 16.5 19.5 16.5 19.9 16.344 20.278 16.06 20.56L11.12 25.5 16.06 30.44C16.644 31.024 16.644 31.976 16.06 32.562 15.778 32.844 15.4 33 15 33zM21 33C20.77 33 20.538 32.946 20.33 32.842 19.59 32.472 19.29 31.57 19.658 30.83L25.658 18.83C25.914 18.318 26.428 18.002 27 18.002 27.23 18.002 27.462 18.056 27.668 18.16 28.408 18.53 28.71 19.434 28.34 20.172L22.34 32.172C22.086 32.682 21.572 33 21 33z"/>
    </g>
  </g>
</svg>
