<svg xmlns="http://www.w3.org/2000/svg" width="100" height="100" viewBox="0 0 100 100">
  <g fill="none" fill-rule="evenodd">
    <rect width="53" height="53" x="45.5" y="45.5" fill="#FFF" stroke="#043485" stroke-width="3"/>
    <circle cx="44" cy="44" r="42.5" fill="#E6EEFC" stroke="#043485" stroke-width="3"/>
    <path fill="#043485" fill-rule="nonzero" d="M7.72,48 C3.738,48 0.5,44.762 0.5,40.78 L0.5,4.5 C0.5,2.018 2.518,0 5,0 L30,0 C31.93,0 33.5,1.57 33.5,3.5 L33.5,44.5 C33.5,46.43 31.93,48 30,48 L7.72,48 Z M30,45 C30.276,45 30.5,44.776 30.5,44.5 L30.5,39.842 C29.134,41.926 27.326,43.666 25.132,45 L30,45 Z M3.5,40.78 C3.5,43.108 5.394,45 7.72,45 L14,45 L14,39.356 C13.098,39.906 12.058,40.202 10.98,40.202 C9.48,40.202 8.054,39.63 6.966,38.594 C6.368,38.024 6.344,37.072 6.914,36.472 C7.196,36.176 7.592,36.008 8,36.008 C8.386,36.008 8.754,36.154 9.034,36.422 C9.562,36.926 10.252,37.202 10.978,37.202 C11.704,37.202 12.394,36.926 12.922,36.422 C12.966,36.38 13.006,36.342 13.042,36.302 C13.68,35.632 14.02,34.752 13.998,33.824 C13.976,32.896 13.594,32.034 12.922,31.394 C12.484,30.972 11.982,30.636 11.42,30.392 L3.5,30.392 L3.5,40.78 Z M17,44.774 C22.128,43.892 29.774,40.82 30.444,30.392 L17,30.392 L17,44.774 Z M30.44,27.392 C29.836,19.294 23.994,4.776 5.396,3 L5,3 C4.172,3 3.5,3.672 3.5,4.5 L3.5,27.392 L30.44,27.392 Z M16.458,3 C19.274,4.316 21.88,6.004 24.124,7.978 C26.81,10.34 28.944,13.054 30.5,16.08 L30.5,3.5 C30.5,3.224 30.276,3 30,3 L16.458,3 Z" transform="translate(27 20)"/>
  </g>
</svg>
