<svg xmlns="http://www.w3.org/2000/svg" width="16" height="16" viewBox="0 0 16 16">
  <path fill="#2F855A" fill-rule="evenodd" d="M16,8 C11.5888,8 8,11.5888 8,16 C8,20.4112 11.5888,24 16,24 C20.4112,24 24,20.4112 24,16 C24,11.5888 20.4112,8 16,8 M16,22.4 C12.4712,22.4 9.6,19.5288 9.6,16 C9.6,12.4712 12.4712,9.6 16,9.6 C19.5288,9.6 22.4,12.4712 22.4,16 C22.4,19.5288 19.5288,22.4 16,22.4 M17.8344,13.8344 L15.2,16.4688 L14.1656,15.4344 C13.8528,15.1216 13.3472,15.1216 13.0344,15.4344 C12.7216,15.7472 12.7216,16.2528 13.0344,16.5656 L14.6344,18.1656 C14.7904,18.3216 14.9952,18.4 15.2,18.4 C15.4048,18.4 15.6096,18.3216 15.7656,18.1656 L18.9656,14.9656 C19.2784,14.6528 19.2784,14.1472 18.9656,13.8344 C18.6528,13.5216 18.1472,13.5216 17.8344,13.8344" transform="translate(-8 -8)"/>
</svg>
