<svg xmlns="http://www.w3.org/2000/svg" xmlns:xlink="http://www.w3.org/1999/xlink" width="16" height="16" viewBox="0 0 16 16">
  <defs>
    <path id="close-icon-a" d="M16,8 C11.5888,8 8,11.5888 8,16 C8,20.4112 11.5888,24 16,24 C20.4112,24 24,20.4112 24,16 C24,11.5888 20.4112,8 16,8 M16,22.4 C12.4712,22.4 9.6,19.5288 9.6,16 C9.6,12.4712 12.4712,9.6 16,9.6 C19.5288,9.6 22.4,12.4712 22.4,16 C22.4,19.5288 19.5288,22.4 16,22.4 M18.9656,13.0344 C18.6528,12.7216 18.1472,12.7216 17.8344,13.0344 L16,14.8688 L14.1656,13.0344 C13.8528,12.7216 13.3472,12.7216 13.0344,13.0344 C12.7216,13.3472 12.7216,13.8528 13.0344,14.1656 L14.8688,16 L13.0344,17.8344 C12.7216,18.1472 12.7216,18.6528 13.0344,18.9656 C13.1904,19.1216 13.3952,19.2 13.6,19.2 C13.8048,19.2 14.0096,19.1216 14.1656,18.9656 L16,17.1312 L17.8344,18.9656 C17.9904,19.1216 18.1952,19.2 18.4,19.2 C18.6048,19.2 18.8096,19.1216 18.9656,18.9656 C19.2784,18.6528 19.2784,18.1472 18.9656,17.8344 L17.1312,16 L18.9656,14.1656 C19.2784,13.8528 19.2784,13.3472 18.9656,13.0344"/>
  </defs>
  <use fill="#C53030" fill-rule="evenodd" transform="translate(-8 -8)" xlink:href="#close-icon-a"/>
</svg>
