<svg xmlns="http://www.w3.org/2000/svg" xmlns:xlink="http://www.w3.org/1999/xlink" width="20" height="20" viewBox="0 0 20 20">
  <defs>
    <path id="external-a" d="M15,6.414 L9.707,11.707 C9.316,12.098 8.684,12.098 8.293,11.707 C7.902,11.316 7.902,10.684 8.293,10.293 L13.586,5 L11,5 C10.447,5 10,4.552 10,4 C10,3.448 10.447,3 11,3 L15,3 L17,3 L17,9 C17,9.552 16.553,10 16,10 C15.447,10 15,9.552 15,9 L15,6.414 Z M8,4 L8,4 C8,4.552 7.553,5 7,5 L5,5 L5,15 L15,15 L15,13 C15,12.448 15.447,12 16,12 C16.553,12 17,12.448 17,13 L17,15 C17,16.104 16.104,17 15,17 L5,17 C3.896,17 3,16.104 3,15 L3,5 C3,3.895 3.896,3 5,3 L7,3 C7.553,3 8,3.448 8,4 L8,4 Z"/>
  </defs>
  <use fill="#0a0023" fill-rule="evenodd" xlink:href="#external-a"/>
</svg>
