<svg xmlns="http://www.w3.org/2000/svg" width="16" height="16" viewBox="0 0 16 16">
  <path fill="#FFF" fill-rule="evenodd" d="M29.6,22.4 C29.1592,22.4 28.8,22.0416 28.8,21.6 C28.8,21.1584 29.1592,20.8 29.6,20.8 C30.0408,20.8 30.4,21.1584 30.4,21.6 C30.4,22.0416 30.0408,22.4 29.6,22.4 M21.6,20.8 C20.2768,20.8 19.2,19.7232 19.2,18.4 C19.2,17.0768 20.2768,16 21.6,16 C22.9232,16 24,17.0768 24,18.4 C24,19.7232 22.9232,20.8 21.6,20.8 M17.6,10.4 C17.6,9.9584 17.9592,9.6 18.4,9.6 C18.8408,9.6 19.2,9.9584 19.2,10.4 C19.2,10.8416 18.8408,11.2 18.4,11.2 C17.9592,11.2 17.6,10.8416 17.6,10.4 M29.6,9.6 C30.0408,9.6 30.4,9.9584 30.4,10.4 C30.4,10.8416 30.0408,11.2 29.6,11.2 C29.1592,11.2 28.8,10.8416 28.8,10.4 C28.8,9.9584 29.1592,9.6 29.6,9.6 M29.6,19.2 C28.9544,19.2 28.3704,19.4592 27.9384,19.8752 L25.5704,18.6904 C25.5776,18.5928 25.6,18.5 25.6,18.4 C25.6,17.5856 25.3528,16.8296 24.9336,16.1976 L28.5656,12.5656 C28.5672,12.5632 28.568,12.5608 28.5704,12.5584 C28.8832,12.7088 29.2304,12.8 29.6,12.8 C30.9232,12.8 32,11.7232 32,10.4 C32,9.0768 30.9232,8 29.6,8 C28.2768,8 27.2,9.0768 27.2,10.4 C27.2,10.7704 27.2912,11.1168 27.4416,11.4296 C27.4392,11.432 27.436,11.432 27.4344,11.4344 L23.8024,15.0664 C23.1696,14.6472 22.4144,14.4 21.6,14.4 C21.5,14.4 21.4072,14.4216 21.3096,14.4296 L20.1248,12.0608 C20.5408,11.6296 20.8,11.0456 20.8,10.4 C20.8,9.0768 19.7232,8 18.4,8 C17.0768,8 16,9.0768 16,10.4 C16,11.7232 17.0768,12.8 18.4,12.8 C18.5,12.8 18.5944,12.7832 18.6904,12.7704 L19.7448,14.8784 C18.476,15.5496 17.6,16.868 17.6,18.4 C17.6,20.6056 19.3944,22.4 21.6,22.4 C23.1328,22.4 24.4504,21.524 25.1216,20.2552 L27.2296,21.3096 C27.2176,21.4056 27.2,21.5 27.2,21.6 C27.2,22.9232 28.2768,24 29.6,24 C30.9232,24 32,22.9232 32,21.6 C32,20.2768 30.9232,19.2 29.6,19.2" transform="translate(-16 -8)"/>
</svg>
