<svg xmlns="http://www.w3.org/2000/svg" width="16" height="16" viewBox="0 0 16 16">
  <path fill="#FFF" fill-rule="evenodd" d="M24.7389755,16.8608181 C24.7877783,16.8608181 24.8365812,16.8656183 24.8853841,16.8744189 C25.1445992,16.9224217 25.363012,17.0952318 25.4702182,17.3360458 L27.5463396,22.007519 L28.7264086,21.2202729 L27.5551401,14.1870617 C27.5127377,13.9326469 27.5951425,13.6734317 27.7783532,13.490221 L30.1384912,11.130083 C30.4889117,10.7796625 30.4889117,10.2108293 30.1384912,9.86120884 C29.7888707,9.51078836 29.2200375,9.51078836 28.869617,9.86120884 L26.5358805,12.1949453 C26.3502697,12.3805561 26.0854542,12.4661611 25.8270391,12.4157582 L19.4698674,11.2604907 L18.1889926,12.5413655 L22.6636542,14.5294818 C22.9044682,14.636688 23.0772783,14.8551008 23.1252812,15.114316 C23.173284,15.3743312 23.0908791,15.6407467 22.9044682,15.8263576 L21.3659783,17.3648475 C21.2163696,17.5144563 21.0131577,17.5992612 20.8003452,17.5992612 L18.7314243,17.5992612 L18.1513904,18.1792951 L20.3579194,19.2833597 C20.5131284,19.3609642 20.6387358,19.4865716 20.7163403,19.6417807 L21.8204049,21.8483097 L22.4004388,21.2682757 L22.4004388,19.1993548 C22.4004388,18.9865423 22.4852437,18.7833305 22.6348525,18.6337217 L24.1733424,17.0952318 C24.3245513,16.9440229 24.5285632,16.8608181 24.7389755,16.8608181 M21.600392,23.9996354 C21.5579895,23.9996354 21.515587,23.9964352 21.4723845,23.9892348 C21.2187697,23.9476324 20.9995569,23.786823 20.8851502,23.5572096 L19.4042636,20.5954364 L16.4424905,19.1145498 C16.212877,19.0001431 16.0520676,18.7809303 16.0104652,18.5273155 C15.9688628,18.2737007 16.0528677,18.0152856 16.2344783,17.8336749 L17.8345718,16.2335814 C17.9849806,16.0831726 18.1881925,15.9991677 18.4002049,15.9991677 L20.4691259,15.9991677 L20.949954,15.5183396 L16.4752924,13.5302233 C16.2344783,13.4230171 16.0616682,13.2046043 16.0136654,12.9445891 C15.9656626,12.685374 16.0480674,12.4189584 16.2344783,12.2333475 L18.6346186,9.83320721 C18.8210295,9.64679631 19.085845,9.56039126 19.3434601,9.61159425 L25.7006317,10.7676618 L27.7383508,8.72994271 C28.7120078,7.75708583 30.2945003,7.75628578 31.2697573,8.72994271 C32.2434142,9.70359963 32.2434142,11.2876922 31.2697573,12.2613492 L29.2008364,14.3302701 L30.3897059,21.4682874 C30.4417089,21.7779055 30.306501,22.0907238 30.0448857,22.265134 L27.6447454,23.8652276 C27.4479339,23.9948351 27.2015195,24.0348375 26.9783064,23.9676336 C26.7518932,23.9020297 26.5654823,23.7404203 26.4694767,23.5244076 L24.4813604,19.049746 L24.0005323,19.5305741 L24.0005323,21.5994951 C24.0005323,21.8115075 23.9165274,22.0147194 23.7661186,22.1651282 L22.1660251,23.7652217 C22.0156163,23.9164306 21.8108043,23.9996354 21.600392,23.9996354" transform="translate(-16 -8)"/>
</svg>
